<?xml version="1.0" encoding="utf-8"?>
<!-- Generator: Adobe Illustrator 23.0.1, SVG Export Plug-In . SVG Version: 6.00 Build 0)  -->
<svg version="1.1" id="Ebene_1" xmlns="http://www.w3.org/2000/svg" xmlns:xlink="http://www.w3.org/1999/xlink" x="0px" y="0px"
	 viewBox="0 0 120 120" style="enable-background:new 0 0 120 120;" xml:space="preserve">
<g>
	<g>
		<path d="M0.1,0.1h5.4v1.1H1.2v12.6h4.2v1.1H0.1V0.1z"/>
		<path d="M16,14.8h-5.5v-1.1h4.2V1.1h-4.2V0H16V14.8z"/>
	</g>
	<g>
		<path d="M104,0.1h5.4v1.1h-4.2v12.6h4.2v1.1H104V0.1z"/>
		<path d="M119.9,14.8h-5.5v-1.1h4.2V1.1h-4.2V0h5.5V14.8z"/>
	</g>
	<g>
		<path d="M41.6,0.1H47v1.1h-4.2v12.6H47v1.1h-5.4V0.1z"/>
		<path d="M57.6,14.8h-5.5v-1.1h4.2V1.1h-4.2V0h5.5V14.8z"/>
	</g>
	<g>
		<path d="M20.8,0.1h5.4v1.1H22v12.6h4.2v1.1h-5.4V0.1z"/>
		<path d="M36.8,14.8h-5.5v-1.1h4.2V1.1h-4.2V0h5.5V14.8z"/>
	</g>
	<g>
		<path d="M83.2,0.1h5.4v1.1h-4.2v12.6h4.2v1.1h-5.4V0.1z"/>
		<path d="M99.2,14.8h-5.5v-1.1h4.2V1.1h-4.2V0h5.5V14.8z"/>
	</g>
	<g>
		<path d="M62.4,0.1h5.4v1.1h-4.2v12.6h4.2v1.1h-5.4V0.1z"/>
		<path d="M78.4,14.8h-5.5v-1.1h4.2V1.1h-4.2V0h5.5V14.8z"/>
	</g>
</g>
<g>
	<g>
		<path d="M0.1,21.1h5.4v1.1H1.2v12.6h4.2v1.1H0.1V21.1z"/>
		<path d="M16,35.8h-5.5v-1.1h4.2V22.1h-4.2V21H16V35.8z"/>
	</g>
	<g>
		<path d="M104,21.1h5.4v1.1h-4.2v12.6h4.2v1.1H104V21.1z"/>
		<path d="M119.9,35.8h-5.5v-1.1h4.2V22.1h-4.2V21h5.5V35.8z"/>
	</g>
	<g>
		<path d="M41.6,21.1H47v1.1h-4.2v12.6H47v1.1h-5.4V21.1z"/>
		<path d="M57.6,35.8h-5.5v-1.1h4.2V22.1h-4.2V21h5.5V35.8z"/>
	</g>
	<g>
		<path d="M20.8,21.1h5.4v1.1H22v12.6h4.2v1.1h-5.4V21.1z"/>
		<path d="M36.8,35.8h-5.5v-1.1h4.2V22.1h-4.2V21h5.5V35.8z"/>
	</g>
	<g>
		<path d="M83.2,21.1h5.4v1.1h-4.2v12.6h4.2v1.1h-5.4V21.1z"/>
		<path d="M99.2,35.8h-5.5v-1.1h4.2V22.1h-4.2V21h5.5V35.8z"/>
	</g>
	<g>
		<path d="M62.4,21.1h5.4v1.1h-4.2v12.6h4.2v1.1h-5.4V21.1z"/>
		<path d="M78.4,35.8h-5.5v-1.1h4.2V22.1h-4.2V21h5.5V35.8z"/>
	</g>
</g>
<g>
	<g>
		<path d="M0.1,42.1h5.4v1.1H1.2v12.6h4.2v1.1H0.1V42.1z"/>
		<path d="M16,56.8h-5.5v-1.1h4.2V43.1h-4.2V42H16V56.8z"/>
	</g>
	<g>
		<path d="M104,42.1h5.4v1.1h-4.2v12.6h4.2v1.1H104V42.1z"/>
		<path d="M119.9,56.8h-5.5v-1.1h4.2V43.1h-4.2V42h5.5V56.8z"/>
	</g>
	<g>
		<path d="M41.6,42.1H47v1.1h-4.2v12.6H47v1.1h-5.4V42.1z"/>
		<path d="M57.6,56.8h-5.5v-1.1h4.2V43.1h-4.2V42h5.5V56.8z"/>
	</g>
	<g>
		<path d="M20.8,42.1h5.4v1.1H22v12.6h4.2v1.1h-5.4V42.1z"/>
		<path d="M36.8,56.8h-5.5v-1.1h4.2V43.1h-4.2V42h5.5V56.8z"/>
	</g>
	<g>
		<path d="M83.2,42.1h5.4v1.1h-4.2v12.6h4.2v1.1h-5.4V42.1z"/>
		<path d="M99.2,56.8h-5.5v-1.1h4.2V43.1h-4.2V42h5.5V56.8z"/>
	</g>
	<g>
		<path d="M62.4,42.1h5.4v1.1h-4.2v12.6h4.2v1.1h-5.4V42.1z"/>
		<path d="M78.4,56.8h-5.5v-1.1h4.2V43.1h-4.2V42h5.5V56.8z"/>
	</g>
</g>
<g>
	<g>
		<path d="M0.1,63.2h5.4v1.1H1.2v12.6h4.2V78H0.1V63.2z"/>
		<path d="M16,77.9h-5.5v-1.1h4.2V64.2h-4.2v-1.1H16V77.9z"/>
	</g>
	<g>
		<path d="M104,63.2h5.4v1.1h-4.2v12.6h4.2V78H104V63.2z"/>
		<path d="M119.9,77.9h-5.5v-1.1h4.2V64.2h-4.2v-1.1h5.5V77.9z"/>
	</g>
	<g>
		<path d="M41.6,63.2H47v1.1h-4.2v12.6H47V78h-5.4V63.2z"/>
		<path d="M57.6,77.9h-5.5v-1.1h4.2V64.2h-4.2v-1.1h5.5V77.9z"/>
	</g>
	<g>
		<path d="M20.8,63.2h5.4v1.1H22v12.6h4.2V78h-5.4V63.2z"/>
		<path d="M36.8,77.9h-5.5v-1.1h4.2V64.2h-4.2v-1.1h5.5V77.9z"/>
	</g>
	<g>
		<path d="M83.2,63.2h5.4v1.1h-4.2v12.6h4.2V78h-5.4V63.2z"/>
		<path d="M99.2,77.9h-5.5v-1.1h4.2V64.2h-4.2v-1.1h5.5V77.9z"/>
	</g>
	<g>
		<path d="M62.4,63.2h5.4v1.1h-4.2v12.6h4.2V78h-5.4V63.2z"/>
		<path d="M78.4,77.9h-5.5v-1.1h4.2V64.2h-4.2v-1.1h5.5V77.9z"/>
	</g>
</g>
<g>
	<g>
		<path d="M0.1,84.2h5.4v1.1H1.2v12.6h4.2V99H0.1V84.2z"/>
		<path d="M16,98.9h-5.5v-1.1h4.2V85.2h-4.2v-1.1H16V98.9z"/>
	</g>
	<g>
		<path d="M104,84.2h5.4v1.1h-4.2v12.6h4.2V99H104V84.2z"/>
		<path d="M119.9,98.9h-5.5v-1.1h4.2V85.2h-4.2v-1.1h5.5V98.9z"/>
	</g>
	<g>
		<path d="M41.6,84.2H47v1.1h-4.2v12.6H47V99h-5.4V84.2z"/>
		<path d="M57.6,98.9h-5.5v-1.1h4.2V85.2h-4.2v-1.1h5.5V98.9z"/>
	</g>
	<g>
		<path d="M20.8,84.2h5.4v1.1H22v12.6h4.2V99h-5.4V84.2z"/>
		<path d="M36.8,98.9h-5.5v-1.1h4.2V85.2h-4.2v-1.1h5.5V98.9z"/>
	</g>
	<g>
		<path d="M83.2,84.2h5.4v1.1h-4.2v12.6h4.2V99h-5.4V84.2z"/>
		<path d="M99.2,98.9h-5.5v-1.1h4.2V85.2h-4.2v-1.1h5.5V98.9z"/>
	</g>
	<g>
		<path d="M62.4,84.2h5.4v1.1h-4.2v12.6h4.2V99h-5.4V84.2z"/>
		<path d="M78.4,98.9h-5.5v-1.1h4.2V85.2h-4.2v-1.1h5.5V98.9z"/>
	</g>
</g>
<g>
	<g>
		<path d="M0.1,105.2h5.4v1.1H1.2v12.6h4.2v1.1H0.1V105.2z"/>
		<path d="M16,119.9h-5.5v-1.1h4.2v-12.6h-4.2v-1.1H16V119.9z"/>
	</g>
	<g>
		<path d="M104,105.2h5.4v1.1h-4.2v12.6h4.2v1.1H104V105.2z"/>
		<path d="M119.9,119.9h-5.5v-1.1h4.2v-12.6h-4.2v-1.1h5.5V119.9z"/>
	</g>
	<g>
		<path d="M41.6,105.2H47v1.1h-4.2v12.6H47v1.1h-5.4V105.2z"/>
		<path d="M57.6,119.9h-5.5v-1.1h4.2v-12.6h-4.2v-1.1h5.5V119.9z"/>
	</g>
	<g>
		<path d="M20.8,105.2h5.4v1.1H22v12.6h4.2v1.1h-5.4V105.2z"/>
		<path d="M36.8,119.9h-5.5v-1.1h4.2v-12.6h-4.2v-1.1h5.5V119.9z"/>
	</g>
	<g>
		<path d="M83.2,105.2h5.4v1.1h-4.2v12.6h4.2v1.1h-5.4V105.2z"/>
		<path d="M99.2,119.9h-5.5v-1.1h4.2v-12.6h-4.2v-1.1h5.5V119.9z"/>
	</g>
	<g>
		<path d="M62.4,105.2h5.4v1.1h-4.2v12.6h4.2v1.1h-5.4V105.2z"/>
		<path d="M78.4,119.9h-5.5v-1.1h4.2v-12.6h-4.2v-1.1h5.5V119.9z"/>
	</g>
</g>
</svg>
