<?xml version="1.0" encoding="utf-8"?>
<!-- Generator: Adobe Illustrator 23.0.1, SVG Export Plug-In . SVG Version: 6.00 Build 0)  -->
<svg version="1.1" id="Ebene_1" xmlns="http://www.w3.org/2000/svg" xmlns:xlink="http://www.w3.org/1999/xlink" x="0px" y="0px"
	 viewBox="0 0 120 120" style="enable-background:new 0 0 120 120;" xml:space="preserve">
<g id="Group_1203" transform="translate(-384 -1392)">
	<g>
		<path d="M384.1,1392.1h5.4v1.1h-4.2v12.6h4.2v1.1h-5.4V1392.1z"/>
		<path d="M397.8,1395.9c0.5-0.3,1-0.5,1.5-0.6c0.6-0.1,1.1-0.2,1.7-0.2c0.5,0,1,0.1,1.3,0.3c0.3,0.2,0.6,0.4,0.8,0.7
			c0.2,0.3,0.3,0.6,0.4,0.9c0.1,0.3,0.1,0.7,0.1,1c0,0.4,0,0.8,0,1.3c0,0.5,0,0.9,0,1.4c0,0.5,0,1,0.1,1.5h1.1v1h-2.1l-0.1-1.2h-0.1
			c-0.1,0.1-0.2,0.2-0.3,0.4s-0.3,0.3-0.5,0.4c-0.2,0.1-0.5,0.3-0.8,0.4c-0.3,0.1-0.7,0.2-1.1,0.2c-0.8,0-1.4-0.2-1.9-0.6
			c-0.5-0.4-0.7-1-0.7-1.7c0-0.5,0.1-1,0.4-1.4c0.2-0.4,0.6-0.6,1-0.8c0.4-0.2,1-0.3,1.6-0.3c0.6,0,1.3,0,2.1,0.1
			c0.1-0.5,0.1-0.9,0-1.2c0-0.3-0.1-0.6-0.3-0.8c-0.1-0.2-0.3-0.3-0.6-0.4c-0.2-0.1-0.5-0.1-0.9-0.1c-0.5,0-0.9,0.1-1.4,0.2
			c-0.4,0.1-0.8,0.3-1.2,0.4L397.8,1395.9z M400.2,1402.3c0.3,0,0.6,0,0.8-0.1c0.3-0.1,0.5-0.2,0.7-0.4c0.2-0.1,0.4-0.3,0.5-0.5
			c0.1-0.2,0.2-0.3,0.3-0.5v-1.1c-0.6-0.1-1.1-0.1-1.5-0.1c-0.5,0-0.9,0.1-1.2,0.2c-0.3,0.1-0.6,0.3-0.8,0.5
			c-0.2,0.2-0.3,0.5-0.3,0.8c0,0.4,0.1,0.7,0.4,0.9C399.2,1402.2,399.6,1402.3,400.2,1402.3z"/>
		<path d="M415.8,1397.1l1.6,4.4h0.1l1.1-6.2h1.2l-1.6,8h-1.4l-1.5-4.4h0l-1.6,4.4h-1.4l-1.7-8h1.2l1.3,6.2h0.1l1.5-4.5H415.8z"/>
		<path d="M433.2,1402.3c-0.2,0.2-0.4,0.3-0.7,0.5c-0.3,0.1-0.5,0.3-0.9,0.4c-0.3,0.1-0.6,0.2-1,0.2c-0.3,0.1-0.7,0.1-1,0.1
			c-0.6,0-1.2-0.1-1.7-0.3c-0.5-0.2-0.9-0.5-1.2-0.8c-0.3-0.4-0.6-0.8-0.7-1.3c-0.2-0.5-0.3-1.1-0.3-1.7c0-0.7,0.1-1.3,0.3-1.8
			c0.2-0.5,0.5-1,0.8-1.3c0.4-0.4,0.8-0.6,1.3-0.8c0.5-0.2,1.1-0.3,1.7-0.3c0.4,0,0.9,0.1,1.3,0.2c0.4,0.1,0.8,0.3,1.2,0.7
			c0.3,0.3,0.6,0.8,0.8,1.3c0.2,0.6,0.2,1.3,0.2,2.2h-6.2c0,1,0.3,1.7,0.8,2.1c0.5,0.5,1.2,0.7,2.1,0.7c0.3,0,0.6,0,0.9-0.1
			c0.3-0.1,0.5-0.2,0.8-0.2c0.3-0.1,0.5-0.2,0.7-0.3c0.2-0.1,0.3-0.2,0.5-0.3L433.2,1402.3z M429.9,1396.2c-0.3,0-0.7,0-1,0.1
			c-0.3,0.1-0.6,0.2-0.8,0.4c-0.2,0.2-0.4,0.4-0.6,0.7c-0.2,0.3-0.3,0.6-0.3,1h4.9c-0.1-0.7-0.3-1.2-0.7-1.6
			C431,1396.4,430.5,1396.2,429.9,1396.2z"/>
		<path d="M446.1,1401.1c0-0.3-0.1-0.6-0.4-0.8c-0.3-0.2-0.6-0.3-1-0.4c-0.4-0.1-0.8-0.2-1.3-0.3c-0.5-0.1-0.9-0.2-1.3-0.4
			c-0.4-0.2-0.7-0.4-1-0.6c-0.3-0.3-0.4-0.7-0.4-1.1c0-0.4,0.1-0.7,0.3-1s0.4-0.5,0.7-0.7c0.3-0.2,0.6-0.3,1-0.4
			c0.4-0.1,0.8-0.1,1.2-0.1c0.7,0,1.4,0.1,1.9,0.3c0.5,0.2,1,0.4,1.3,0.6l-0.5,1c-0.3-0.2-0.7-0.4-1.1-0.5c-0.4-0.2-0.9-0.3-1.5-0.3
			c-0.2,0-0.5,0-0.7,0.1c-0.2,0-0.4,0.1-0.6,0.2s-0.3,0.2-0.4,0.4c-0.1,0.2-0.2,0.3-0.2,0.6c0,0.3,0.1,0.5,0.4,0.6
			c0.3,0.1,0.6,0.3,1,0.4c0.4,0.1,0.8,0.2,1.3,0.3c0.5,0.1,0.9,0.2,1.3,0.4c0.4,0.2,0.7,0.4,1,0.7c0.3,0.3,0.4,0.7,0.4,1.2
			c0,0.7-0.3,1.3-0.9,1.8c-0.6,0.5-1.4,0.7-2.6,0.7c-0.4,0-0.7,0-1-0.1c-0.3-0.1-0.7-0.1-1-0.3c-0.3-0.1-0.6-0.2-0.8-0.4
			c-0.2-0.1-0.4-0.3-0.6-0.4l0.6-1c0.1,0.1,0.3,0.3,0.5,0.4s0.4,0.3,0.7,0.4c0.3,0.1,0.5,0.2,0.8,0.3c0.3,0.1,0.6,0.1,0.9,0.1
			c0.3,0,0.6,0,0.8-0.1c0.2,0,0.5-0.1,0.7-0.2c0.2-0.1,0.3-0.2,0.5-0.4C446,1401.6,446.1,1401.4,446.1,1401.1z"/>
		<path d="M454.4,1399.3c0-1.3,0.3-2.3,1-3.1s1.6-1.1,2.9-1.1c0.7,0,1.2,0.1,1.7,0.3c0.5,0.2,0.9,0.5,1.2,0.9
			c0.3,0.4,0.6,0.8,0.7,1.3c0.2,0.5,0.2,1.1,0.2,1.6c0,0.6-0.1,1.2-0.3,1.7c-0.2,0.5-0.4,1-0.7,1.3s-0.7,0.6-1.2,0.8
			c-0.5,0.2-1,0.3-1.6,0.3c-0.7,0-1.2-0.1-1.7-0.3c-0.5-0.2-0.9-0.5-1.2-0.9c-0.3-0.4-0.6-0.8-0.7-1.3
			C454.5,1400.4,454.4,1399.9,454.4,1399.3z M455.7,1399.3c0,0.4,0,0.7,0.1,1.1c0.1,0.4,0.2,0.7,0.4,1s0.5,0.5,0.8,0.7
			c0.3,0.2,0.7,0.3,1.2,0.3c0.8,0,1.5-0.3,1.9-0.8c0.4-0.5,0.6-1.3,0.6-2.3c0-0.4,0-0.8-0.1-1.1c-0.1-0.4-0.2-0.7-0.4-1
			c-0.2-0.3-0.5-0.5-0.8-0.7c-0.3-0.2-0.7-0.3-1.2-0.3c-0.8,0-1.5,0.3-1.9,0.8C455.9,1397.5,455.7,1398.3,455.7,1399.3z"/>
		<path d="M469.2,1403.3v-1.1h1.9v-5.8h-1.9v-1.1h1.9v-0.4c0-1,0.3-1.7,0.8-2.2c0.5-0.4,1.3-0.7,2.2-0.7c0.4,0,0.7,0,0.9,0.1
			c0.3,0,0.6,0.1,0.9,0.3l-0.3,1c-0.3-0.1-0.5-0.2-0.8-0.2c-0.3,0-0.5-0.1-0.7-0.1c-0.7,0-1.2,0.2-1.4,0.5c-0.3,0.3-0.4,0.9-0.4,1.7
			h3.3v1.1h-3.3v5.8h3.3v1.1H469.2z"/>
		<path d="M482.6,1395.3h1.9v-1.6l1.3-0.4v1.9h4.3v1.1h-4.3v3.8c0,0.8,0.2,1.3,0.6,1.7c0.4,0.4,0.9,0.6,1.6,0.6
			c0.5,0,0.9-0.1,1.2-0.3c0.4-0.2,0.7-0.4,1-0.6l0.4,0.9c-0.4,0.3-0.8,0.5-1.3,0.7c-0.5,0.2-1,0.3-1.6,0.3c-0.4,0-0.8-0.1-1.2-0.2
			c-0.4-0.1-0.7-0.3-1-0.6c-0.3-0.3-0.5-0.6-0.7-1s-0.3-0.9-0.3-1.4v-4h-1.9V1395.3z"/>
		<path d="M504,1406.9h-5.5v-1.1h4.2v-12.6h-4.2v-1.1h5.5V1406.9z"/>
	</g>
	<g id="Group_1203_1_" transform="translate(-384 -1392)">
		<g>
			<path d="M768,2805.1h5.4v1.1h-4.2v12.6h4.2v1.1H768V2805.1z"/>
			<path d="M781.7,2808.9c0.5-0.3,1-0.5,1.5-0.6c0.6-0.1,1.1-0.2,1.7-0.2c0.5,0,1,0.1,1.3,0.3c0.3,0.2,0.6,0.4,0.8,0.7
				c0.2,0.3,0.3,0.6,0.4,0.9c0.1,0.3,0.1,0.7,0.1,1c0,0.4,0,0.8,0,1.3c0,0.5,0,0.9,0,1.4c0,0.5,0,1,0.1,1.5h1.1v1h-2.1l-0.1-1.2
				h-0.1c-0.1,0.1-0.2,0.2-0.3,0.4c-0.1,0.1-0.3,0.3-0.5,0.4c-0.2,0.1-0.5,0.3-0.8,0.4c-0.3,0.1-0.7,0.2-1.1,0.2
				c-0.8,0-1.4-0.2-1.9-0.6c-0.5-0.4-0.7-1-0.7-1.7c0-0.5,0.1-1,0.4-1.4c0.2-0.4,0.6-0.6,1-0.8c0.4-0.2,1-0.3,1.6-0.3
				c0.6,0,1.3,0,2.1,0.1c0.1-0.5,0.1-0.9,0-1.2c0-0.3-0.1-0.6-0.3-0.8c-0.1-0.2-0.3-0.3-0.6-0.4c-0.2-0.1-0.5-0.1-0.9-0.1
				c-0.5,0-0.9,0.1-1.4,0.2c-0.4,0.1-0.8,0.3-1.2,0.4L781.7,2808.9z M784.1,2815.4c0.3,0,0.6,0,0.8-0.1c0.3-0.1,0.5-0.2,0.7-0.4
				c0.2-0.1,0.4-0.3,0.5-0.5c0.1-0.2,0.2-0.3,0.3-0.5v-1.1c-0.6-0.1-1.1-0.1-1.5-0.1s-0.9,0.1-1.2,0.2c-0.3,0.1-0.6,0.3-0.8,0.5
				c-0.2,0.2-0.3,0.5-0.3,0.8c0,0.4,0.1,0.7,0.4,0.9C783.1,2815.2,783.5,2815.4,784.1,2815.4z"/>
			<path d="M799.7,2810.1l1.6,4.4h0.1l1.1-6.2h1.2l-1.6,8h-1.4l-1.5-4.4h0l-1.6,4.4h-1.4l-1.7-8h1.2l1.3,6.2h0.1l1.5-4.5H799.7z"/>
			<path d="M817.1,2815.3c-0.2,0.2-0.4,0.3-0.7,0.5c-0.3,0.1-0.5,0.3-0.9,0.4c-0.3,0.1-0.6,0.2-1,0.2c-0.3,0.1-0.7,0.1-1,0.1
				c-0.6,0-1.2-0.1-1.7-0.3c-0.5-0.2-0.9-0.5-1.2-0.8c-0.3-0.4-0.6-0.8-0.7-1.3c-0.2-0.5-0.3-1.1-0.3-1.7c0-0.7,0.1-1.3,0.3-1.8
				c0.2-0.5,0.5-1,0.8-1.3s0.8-0.6,1.3-0.8c0.5-0.2,1.1-0.3,1.7-0.3c0.4,0,0.9,0.1,1.3,0.2c0.4,0.1,0.8,0.3,1.2,0.7
				c0.3,0.3,0.6,0.8,0.8,1.3c0.2,0.6,0.2,1.3,0.2,2.2H811c0,1,0.3,1.7,0.8,2.1c0.5,0.5,1.2,0.7,2.1,0.7c0.3,0,0.6,0,0.9-0.1
				c0.3-0.1,0.5-0.2,0.8-0.2c0.3-0.1,0.5-0.2,0.7-0.3c0.2-0.1,0.3-0.2,0.5-0.3L817.1,2815.3z M813.7,2809.2c-0.3,0-0.7,0-1,0.1
				c-0.3,0.1-0.6,0.2-0.8,0.4c-0.2,0.2-0.4,0.4-0.6,0.7c-0.2,0.3-0.3,0.6-0.3,1h4.9c-0.1-0.7-0.3-1.2-0.7-1.6
				C814.9,2809.4,814.4,2809.2,813.7,2809.2z"/>
			<path d="M830,2814.1c0-0.3-0.1-0.6-0.4-0.8c-0.3-0.2-0.6-0.3-1-0.4c-0.4-0.1-0.8-0.2-1.3-0.3s-0.9-0.2-1.3-0.4
				c-0.4-0.2-0.7-0.4-1-0.6c-0.3-0.3-0.4-0.7-0.4-1.1c0-0.4,0.1-0.7,0.3-1s0.4-0.5,0.7-0.7c0.3-0.2,0.6-0.3,1-0.4
				c0.4-0.1,0.8-0.1,1.2-0.1c0.7,0,1.4,0.1,1.9,0.3c0.5,0.2,1,0.4,1.3,0.6l-0.5,1c-0.3-0.2-0.7-0.4-1.1-0.5
				c-0.4-0.2-0.9-0.3-1.5-0.3c-0.2,0-0.5,0-0.7,0.1c-0.2,0-0.4,0.1-0.6,0.2c-0.2,0.1-0.3,0.2-0.4,0.4c-0.1,0.2-0.2,0.3-0.2,0.6
				c0,0.3,0.1,0.5,0.4,0.6c0.3,0.1,0.6,0.3,1,0.4c0.4,0.1,0.8,0.2,1.3,0.3c0.5,0.1,0.9,0.2,1.3,0.4c0.4,0.2,0.7,0.4,1,0.7
				s0.4,0.7,0.4,1.2c0,0.7-0.3,1.3-0.9,1.8c-0.6,0.5-1.4,0.7-2.6,0.7c-0.4,0-0.7,0-1-0.1c-0.3-0.1-0.7-0.1-1-0.3
				c-0.3-0.1-0.6-0.2-0.8-0.4c-0.2-0.1-0.4-0.3-0.6-0.4l0.6-1c0.1,0.1,0.3,0.3,0.5,0.4s0.4,0.3,0.7,0.4c0.3,0.1,0.5,0.2,0.8,0.3
				c0.3,0.1,0.6,0.1,0.9,0.1c0.3,0,0.6,0,0.8-0.1c0.2,0,0.5-0.1,0.7-0.2c0.2-0.1,0.3-0.2,0.5-0.4
				C829.9,2814.6,830,2814.4,830,2814.1z"/>
			<path d="M838.3,2812.3c0-1.3,0.3-2.3,1-3.1c0.7-0.7,1.6-1.1,2.9-1.1c0.7,0,1.2,0.1,1.7,0.3c0.5,0.2,0.9,0.5,1.2,0.9
				c0.3,0.4,0.6,0.8,0.7,1.3c0.2,0.5,0.2,1.1,0.2,1.6c0,0.6-0.1,1.2-0.3,1.7c-0.2,0.5-0.4,1-0.7,1.3c-0.3,0.4-0.7,0.6-1.2,0.8
				c-0.5,0.2-1,0.3-1.6,0.3c-0.7,0-1.2-0.1-1.7-0.3c-0.5-0.2-0.9-0.5-1.2-0.9c-0.3-0.4-0.6-0.8-0.7-1.3S838.3,2812.9,838.3,2812.3z
				 M839.6,2812.3c0,0.4,0,0.7,0.1,1.1c0.1,0.4,0.2,0.7,0.4,1s0.5,0.5,0.8,0.7c0.3,0.2,0.7,0.3,1.2,0.3c0.8,0,1.5-0.3,1.9-0.8
				c0.4-0.5,0.6-1.3,0.6-2.3c0-0.4,0-0.8-0.1-1.1c-0.1-0.4-0.2-0.7-0.4-1c-0.2-0.3-0.5-0.5-0.8-0.7c-0.3-0.2-0.7-0.3-1.2-0.3
				c-0.8,0-1.5,0.3-1.9,0.8C839.8,2810.5,839.6,2811.3,839.6,2812.3z"/>
			<path d="M853.1,2816.3v-1.1h1.9v-5.8h-1.9v-1.1h1.9v-0.4c0-1,0.3-1.7,0.8-2.2c0.5-0.4,1.3-0.7,2.2-0.7c0.4,0,0.7,0,0.9,0.1
				c0.3,0,0.6,0.1,0.9,0.3l-0.3,1c-0.3-0.1-0.5-0.2-0.8-0.2c-0.3,0-0.5-0.1-0.7-0.1c-0.7,0-1.2,0.2-1.4,0.5
				c-0.3,0.3-0.4,0.9-0.4,1.7h3.3v1.1h-3.3v5.8h3.3v1.1H853.1z"/>
			<path d="M866.5,2808.3h1.9v-1.6l1.3-0.4v1.9h4.3v1.1h-4.3v3.8c0,0.8,0.2,1.3,0.6,1.7c0.4,0.4,0.9,0.6,1.6,0.6
				c0.5,0,0.9-0.1,1.2-0.3c0.4-0.2,0.7-0.4,1-0.6l0.4,0.9c-0.4,0.3-0.8,0.5-1.3,0.7c-0.5,0.2-1,0.3-1.6,0.3c-0.4,0-0.8-0.1-1.2-0.2
				c-0.4-0.1-0.7-0.3-1-0.6c-0.3-0.3-0.5-0.6-0.7-1c-0.2-0.4-0.3-0.9-0.3-1.4v-4h-1.9V2808.3z"/>
			<path d="M887.9,2820h-5.5v-1.1h4.2v-12.6h-4.2v-1.1h5.5V2820z"/>
		</g>
	</g>
	<g id="Group_1203_2_" transform="translate(-384 -1392)">
		<g>
			<path d="M767.8,2826.1h5.4v1.1h-4.2v12.6h4.2v1.1h-5.4V2826.1z"/>
			<path d="M781.5,2830c0.5-0.3,1-0.5,1.5-0.6c0.6-0.1,1.1-0.2,1.7-0.2c0.5,0,1,0.1,1.3,0.3c0.3,0.2,0.6,0.4,0.8,0.7
				c0.2,0.3,0.3,0.6,0.4,0.9c0.1,0.3,0.1,0.7,0.1,1c0,0.4,0,0.8,0,1.3c0,0.5,0,0.9,0,1.4c0,0.5,0,1,0.1,1.5h1.1v1h-2.1l-0.1-1.2
				h-0.1c-0.1,0.1-0.2,0.2-0.3,0.4c-0.1,0.1-0.3,0.3-0.5,0.4c-0.2,0.1-0.5,0.3-0.8,0.4c-0.3,0.1-0.7,0.2-1.1,0.2
				c-0.8,0-1.4-0.2-1.9-0.6c-0.5-0.4-0.7-1-0.7-1.7c0-0.5,0.1-1,0.4-1.4c0.2-0.4,0.6-0.6,1-0.8c0.4-0.2,1-0.3,1.6-0.3
				c0.6,0,1.3,0,2.1,0.1c0.1-0.5,0.1-0.9,0-1.2c0-0.3-0.1-0.6-0.3-0.8c-0.1-0.2-0.3-0.3-0.6-0.4c-0.2-0.1-0.5-0.1-0.9-0.1
				c-0.5,0-0.9,0.1-1.4,0.2c-0.4,0.1-0.8,0.3-1.2,0.4L781.5,2830z M783.9,2836.4c0.3,0,0.6,0,0.8-0.1c0.3-0.1,0.5-0.2,0.7-0.4
				c0.2-0.1,0.4-0.3,0.5-0.5c0.1-0.2,0.2-0.3,0.3-0.5v-1.1c-0.6-0.1-1.1-0.1-1.5-0.1c-0.5,0-0.9,0.1-1.2,0.2
				c-0.3,0.1-0.6,0.3-0.8,0.5c-0.2,0.2-0.3,0.5-0.3,0.8c0,0.4,0.1,0.7,0.4,0.9C782.9,2836.2,783.3,2836.4,783.9,2836.4z"/>
			<path d="M799.6,2831.1l1.6,4.4h0.1l1.1-6.2h1.2l-1.6,8h-1.4l-1.5-4.4h0l-1.6,4.4H796l-1.7-8h1.2l1.3,6.2h0.1l1.5-4.5H799.6z"/>
			<path d="M816.9,2836.3c-0.2,0.2-0.4,0.3-0.7,0.5c-0.3,0.1-0.5,0.3-0.9,0.4c-0.3,0.1-0.6,0.2-1,0.2c-0.3,0.1-0.7,0.1-1,0.1
				c-0.6,0-1.2-0.1-1.7-0.3c-0.5-0.2-0.9-0.5-1.2-0.8c-0.3-0.4-0.6-0.8-0.7-1.3c-0.2-0.5-0.3-1.1-0.3-1.7c0-0.7,0.1-1.3,0.3-1.8
				c0.2-0.5,0.5-1,0.8-1.3c0.4-0.4,0.8-0.6,1.3-0.8c0.5-0.2,1.1-0.3,1.7-0.3c0.4,0,0.9,0.1,1.3,0.2c0.4,0.1,0.8,0.3,1.2,0.7
				c0.3,0.3,0.6,0.8,0.8,1.3c0.2,0.6,0.2,1.3,0.2,2.2h-6.2c0,1,0.3,1.7,0.8,2.1c0.5,0.5,1.2,0.7,2.1,0.7c0.3,0,0.6,0,0.9-0.1
				c0.3-0.1,0.5-0.2,0.8-0.2c0.3-0.1,0.5-0.2,0.7-0.3c0.2-0.1,0.3-0.2,0.5-0.3L816.9,2836.3z M813.6,2830.2c-0.3,0-0.7,0-1,0.1
				c-0.3,0.1-0.6,0.2-0.8,0.4c-0.2,0.2-0.4,0.4-0.6,0.7c-0.2,0.3-0.3,0.6-0.3,1h4.9c-0.1-0.7-0.3-1.2-0.7-1.6
				C814.7,2830.4,814.2,2830.2,813.6,2830.2z"/>
			<path d="M829.8,2835.1c0-0.3-0.1-0.6-0.4-0.8c-0.3-0.2-0.6-0.3-1-0.4c-0.4-0.1-0.8-0.2-1.3-0.3s-0.9-0.2-1.3-0.4
				c-0.4-0.2-0.7-0.4-1-0.6c-0.3-0.3-0.4-0.7-0.4-1.1c0-0.4,0.1-0.7,0.3-1s0.4-0.5,0.7-0.7c0.3-0.2,0.6-0.3,1-0.4
				c0.4-0.1,0.8-0.1,1.2-0.1c0.7,0,1.4,0.1,1.9,0.3c0.5,0.2,1,0.4,1.3,0.6l-0.5,1c-0.3-0.2-0.7-0.4-1.1-0.6
				c-0.4-0.2-0.9-0.3-1.5-0.3c-0.2,0-0.5,0-0.7,0.1c-0.2,0-0.4,0.1-0.6,0.2c-0.2,0.1-0.3,0.2-0.4,0.4c-0.1,0.2-0.2,0.3-0.2,0.6
				c0,0.3,0.1,0.5,0.4,0.6c0.3,0.1,0.6,0.3,1,0.4c0.4,0.1,0.8,0.2,1.3,0.3s0.9,0.2,1.3,0.4c0.4,0.2,0.7,0.4,1,0.7s0.4,0.7,0.4,1.2
				c0,0.7-0.3,1.3-0.9,1.8c-0.6,0.5-1.4,0.7-2.6,0.7c-0.4,0-0.7,0-1-0.1c-0.3-0.1-0.7-0.1-1-0.3c-0.3-0.1-0.6-0.2-0.8-0.4
				c-0.2-0.1-0.4-0.3-0.6-0.4l0.6-1c0.1,0.1,0.3,0.3,0.5,0.4s0.4,0.3,0.7,0.4c0.3,0.1,0.5,0.2,0.8,0.3c0.3,0.1,0.6,0.1,0.9,0.1
				c0.3,0,0.6,0,0.8-0.1c0.2,0,0.5-0.1,0.7-0.2c0.2-0.1,0.3-0.2,0.5-0.4C829.8,2835.6,829.8,2835.4,829.8,2835.1z"/>
			<path d="M838.1,2833.3c0-1.3,0.3-2.3,1-3.1c0.7-0.7,1.6-1.1,2.9-1.1c0.7,0,1.2,0.1,1.7,0.3c0.5,0.2,0.9,0.5,1.2,0.9
				c0.3,0.4,0.6,0.8,0.7,1.3c0.2,0.5,0.2,1.1,0.2,1.6c0,0.6-0.1,1.2-0.3,1.7c-0.2,0.5-0.4,1-0.7,1.3c-0.3,0.4-0.7,0.6-1.2,0.8
				c-0.5,0.2-1,0.3-1.6,0.3c-0.7,0-1.2-0.1-1.7-0.3c-0.5-0.2-0.9-0.5-1.2-0.9c-0.3-0.4-0.6-0.8-0.7-1.3
				C838.2,2834.4,838.1,2833.9,838.1,2833.3z M839.4,2833.3c0,0.4,0,0.7,0.1,1.1c0.1,0.4,0.2,0.7,0.4,1c0.2,0.3,0.5,0.5,0.8,0.7
				c0.3,0.2,0.7,0.3,1.2,0.3c0.8,0,1.5-0.3,1.9-0.8c0.4-0.5,0.6-1.3,0.6-2.3c0-0.4,0-0.8-0.1-1.1c-0.1-0.4-0.2-0.7-0.4-1
				c-0.2-0.3-0.5-0.5-0.8-0.7s-0.7-0.3-1.2-0.3c-0.8,0-1.5,0.3-1.9,0.8C839.6,2831.5,839.4,2832.3,839.4,2833.3z"/>
			<path d="M852.9,2837.3v-1.1h1.9v-5.8h-1.9v-1.1h1.9v-0.4c0-1,0.3-1.7,0.8-2.2c0.5-0.4,1.3-0.7,2.2-0.7c0.4,0,0.7,0,0.9,0.1
				c0.3,0,0.6,0.1,0.9,0.3l-0.3,1c-0.3-0.1-0.5-0.2-0.8-0.2c-0.3,0-0.5-0.1-0.7-0.1c-0.7,0-1.2,0.2-1.4,0.5
				c-0.3,0.3-0.4,0.9-0.4,1.7h3.3v1.1h-3.3v5.8h3.3v1.1H852.9z"/>
			<path d="M866.4,2829.3h1.9v-1.6l1.3-0.4v1.9h4.3v1.1h-4.3v3.8c0,0.8,0.2,1.3,0.6,1.7c0.4,0.4,0.9,0.6,1.6,0.6
				c0.5,0,0.9-0.1,1.2-0.3c0.4-0.2,0.7-0.4,1-0.6l0.4,0.9c-0.4,0.3-0.8,0.5-1.3,0.7c-0.5,0.2-1,0.3-1.6,0.3c-0.4,0-0.8-0.1-1.2-0.2
				c-0.4-0.1-0.7-0.3-1-0.6c-0.3-0.3-0.5-0.6-0.7-1s-0.3-0.9-0.3-1.4v-4h-1.9V2829.3z"/>
			<path d="M887.7,2841h-5.5v-1.1h4.2v-12.6h-4.2v-1.1h5.5V2841z"/>
		</g>
	</g>
	<g id="Group_1203_3_" transform="translate(-384 -1392)">
		<g>
			<path d="M768.1,2847.2h5.4v1.1h-4.2v12.6h4.2v1.1h-5.4V2847.2z"/>
			<path d="M781.8,2851c0.5-0.3,1-0.5,1.5-0.6c0.6-0.1,1.1-0.2,1.7-0.2c0.5,0,1,0.1,1.3,0.3c0.3,0.2,0.6,0.4,0.8,0.7
				c0.2,0.3,0.3,0.6,0.4,0.9c0.1,0.3,0.1,0.7,0.1,1c0,0.4,0,0.8,0,1.3c0,0.5,0,0.9,0,1.4c0,0.5,0,1,0.1,1.5h1.1v1h-2.1l-0.1-1.2
				h-0.1c-0.1,0.1-0.2,0.2-0.3,0.4c-0.1,0.1-0.3,0.3-0.5,0.4c-0.2,0.1-0.5,0.3-0.8,0.4c-0.3,0.1-0.7,0.2-1.1,0.2
				c-0.8,0-1.4-0.2-1.9-0.6c-0.5-0.4-0.7-1-0.7-1.7c0-0.5,0.1-1,0.4-1.4c0.2-0.4,0.6-0.6,1-0.8c0.4-0.2,1-0.3,1.6-0.3
				c0.6,0,1.3,0,2.1,0.1c0.1-0.5,0.1-0.9,0-1.2c0-0.3-0.1-0.6-0.3-0.8c-0.1-0.2-0.3-0.3-0.6-0.4c-0.2-0.1-0.5-0.1-0.9-0.1
				c-0.5,0-0.9,0.1-1.4,0.2c-0.4,0.1-0.8,0.3-1.2,0.4L781.8,2851z M784.1,2857.4c0.3,0,0.6,0,0.8-0.1c0.3-0.1,0.5-0.2,0.7-0.4
				c0.2-0.1,0.4-0.3,0.5-0.5c0.1-0.2,0.2-0.3,0.3-0.5v-1.1c-0.6-0.1-1.1-0.1-1.5-0.1s-0.9,0.1-1.2,0.2c-0.3,0.1-0.6,0.3-0.8,0.5
				c-0.2,0.2-0.3,0.5-0.3,0.8c0,0.4,0.1,0.7,0.4,0.9C783.1,2857.3,783.5,2857.4,784.1,2857.4z"/>
			<path d="M799.8,2852.1l1.6,4.4h0.1l1.1-6.2h1.2l-1.6,8h-1.4l-1.5-4.4h0l-1.6,4.4h-1.4l-1.7-8h1.2l1.3,6.2h0.1l1.5-4.5H799.8z"/>
			<path d="M817.1,2857.3c-0.2,0.2-0.4,0.3-0.7,0.5c-0.3,0.1-0.5,0.3-0.9,0.4c-0.3,0.1-0.6,0.2-1,0.2c-0.3,0.1-0.7,0.1-1,0.1
				c-0.6,0-1.2-0.1-1.7-0.3c-0.5-0.2-0.9-0.5-1.2-0.8c-0.3-0.4-0.6-0.8-0.7-1.3c-0.2-0.5-0.3-1.1-0.3-1.7c0-0.7,0.1-1.3,0.3-1.8
				c0.2-0.5,0.5-1,0.8-1.3c0.4-0.4,0.8-0.6,1.3-0.8c0.5-0.2,1.1-0.3,1.7-0.3c0.4,0,0.9,0.1,1.3,0.2c0.4,0.1,0.8,0.3,1.2,0.7
				c0.3,0.3,0.6,0.8,0.8,1.3c0.2,0.6,0.2,1.3,0.2,2.2H811c0,1,0.3,1.7,0.8,2.1c0.5,0.5,1.2,0.7,2.1,0.7c0.3,0,0.6,0,0.9-0.1
				c0.3-0.1,0.5-0.2,0.8-0.2c0.3-0.1,0.5-0.2,0.7-0.3c0.2-0.1,0.3-0.2,0.5-0.3L817.1,2857.3z M813.8,2851.2c-0.3,0-0.7,0-1,0.1
				c-0.3,0.1-0.6,0.2-0.8,0.4c-0.2,0.2-0.4,0.4-0.6,0.7c-0.2,0.3-0.3,0.6-0.3,1h4.9c-0.1-0.7-0.3-1.2-0.7-1.6
				C815,2851.4,814.4,2851.2,813.8,2851.2z"/>
			<path d="M830,2856.2c0-0.3-0.1-0.6-0.4-0.8c-0.3-0.2-0.6-0.3-1-0.4c-0.4-0.1-0.8-0.2-1.3-0.3s-0.9-0.2-1.3-0.4
				c-0.4-0.2-0.7-0.4-1-0.6c-0.3-0.3-0.4-0.7-0.4-1.1c0-0.4,0.1-0.7,0.3-1s0.4-0.5,0.7-0.7c0.3-0.2,0.6-0.3,1-0.4
				c0.4-0.1,0.8-0.1,1.2-0.1c0.7,0,1.4,0.1,1.9,0.3c0.5,0.2,1,0.4,1.3,0.6l-0.5,1c-0.3-0.2-0.7-0.4-1.1-0.5
				c-0.4-0.2-0.9-0.3-1.5-0.3c-0.2,0-0.5,0-0.7,0.1c-0.2,0-0.4,0.1-0.6,0.2c-0.2,0.1-0.3,0.2-0.4,0.4c-0.1,0.2-0.2,0.3-0.2,0.6
				c0,0.3,0.1,0.5,0.4,0.6c0.3,0.1,0.6,0.3,1,0.4c0.4,0.1,0.8,0.2,1.3,0.3c0.5,0.1,0.9,0.2,1.3,0.4c0.4,0.2,0.7,0.4,1,0.7
				s0.4,0.7,0.4,1.2c0,0.7-0.3,1.3-0.9,1.8c-0.6,0.5-1.4,0.7-2.6,0.7c-0.4,0-0.7,0-1-0.1c-0.3-0.1-0.7-0.1-1-0.3
				c-0.3-0.1-0.6-0.2-0.8-0.4c-0.2-0.1-0.4-0.3-0.6-0.4l0.6-1c0.1,0.1,0.3,0.3,0.5,0.4s0.4,0.3,0.7,0.4c0.3,0.1,0.5,0.2,0.8,0.3
				c0.3,0.1,0.6,0.1,0.9,0.1c0.3,0,0.6,0,0.8-0.1c0.2,0,0.5-0.1,0.7-0.2s0.3-0.2,0.5-0.4C830,2856.6,830,2856.4,830,2856.2z"/>
			<path d="M838.3,2854.3c0-1.3,0.3-2.3,1-3.1c0.7-0.7,1.6-1.1,2.9-1.1c0.7,0,1.2,0.1,1.7,0.3c0.5,0.2,0.9,0.5,1.2,0.9
				c0.3,0.4,0.6,0.8,0.7,1.3c0.2,0.5,0.2,1.1,0.2,1.6c0,0.6-0.1,1.2-0.3,1.7c-0.2,0.5-0.4,1-0.7,1.3c-0.3,0.4-0.7,0.6-1.2,0.8
				c-0.5,0.2-1,0.3-1.6,0.3c-0.7,0-1.2-0.1-1.7-0.3c-0.5-0.2-0.9-0.5-1.2-0.9c-0.3-0.4-0.6-0.8-0.7-1.3S838.3,2854.9,838.3,2854.3z
				 M839.6,2854.3c0,0.4,0,0.7,0.1,1.1c0.1,0.4,0.2,0.7,0.4,1c0.2,0.3,0.5,0.5,0.8,0.7c0.3,0.2,0.7,0.3,1.2,0.3
				c0.8,0,1.5-0.3,1.9-0.8c0.4-0.5,0.6-1.3,0.6-2.3c0-0.4,0-0.8-0.1-1.1c-0.1-0.4-0.2-0.7-0.4-1c-0.2-0.3-0.5-0.5-0.8-0.7
				c-0.3-0.2-0.7-0.3-1.2-0.3c-0.8,0-1.5,0.3-1.9,0.8C839.8,2852.5,839.6,2853.3,839.6,2854.3z"/>
			<path d="M853.1,2858.3v-1.1h1.9v-5.8h-1.9v-1.1h1.9v-0.4c0-1,0.3-1.7,0.8-2.2c0.5-0.4,1.3-0.7,2.2-0.7c0.4,0,0.7,0,0.9,0.1
				c0.3,0,0.6,0.1,0.9,0.3l-0.3,1c-0.3-0.1-0.5-0.2-0.8-0.2c-0.3,0-0.5-0.1-0.7-0.1c-0.7,0-1.2,0.2-1.4,0.5
				c-0.3,0.3-0.4,0.9-0.4,1.7h3.3v1.1h-3.3v5.8h3.3v1.1H853.1z"/>
			<path d="M866.6,2850.3h1.9v-1.6l1.3-0.4v1.9h4.3v1.1h-4.3v3.8c0,0.8,0.2,1.3,0.6,1.7c0.4,0.4,0.9,0.6,1.6,0.6
				c0.5,0,0.9-0.1,1.2-0.3c0.4-0.2,0.7-0.4,1-0.6l0.4,0.9c-0.4,0.3-0.8,0.5-1.3,0.7c-0.5,0.2-1,0.3-1.6,0.3c-0.4,0-0.8-0.1-1.2-0.2
				c-0.4-0.1-0.7-0.3-1-0.6c-0.3-0.3-0.5-0.6-0.7-1c-0.2-0.4-0.3-0.9-0.3-1.4v-4h-1.9V2850.3z"/>
			<path d="M887.9,2862h-5.5v-1.1h4.2v-12.6h-4.2v-1.1h5.5V2862z"/>
		</g>
	</g>
	<g id="Group_1203_4_" transform="translate(-384 -1392)">
		<g>
			<path d="M767.7,2868.2h5.4v1.1h-4.2v12.6h4.2v1.1h-5.4V2868.2z"/>
			<path d="M781.4,2872c0.5-0.3,1-0.5,1.5-0.6c0.6-0.1,1.1-0.2,1.7-0.2c0.5,0,1,0.1,1.3,0.3c0.3,0.2,0.6,0.4,0.8,0.7
				c0.2,0.3,0.3,0.6,0.4,0.9c0.1,0.3,0.1,0.7,0.1,1c0,0.4,0,0.8,0,1.3c0,0.5,0,0.9,0,1.4c0,0.5,0,1,0.1,1.5h1.1v1h-2.1l-0.1-1.2H786
				c-0.1,0.1-0.2,0.2-0.3,0.4c-0.1,0.1-0.3,0.3-0.5,0.4c-0.2,0.1-0.5,0.3-0.8,0.4c-0.3,0.1-0.7,0.2-1.1,0.2c-0.8,0-1.4-0.2-1.9-0.6
				c-0.5-0.4-0.7-1-0.7-1.7c0-0.5,0.1-1,0.4-1.4c0.2-0.4,0.6-0.6,1-0.8c0.4-0.2,1-0.3,1.6-0.3c0.6,0,1.3,0,2.1,0.1
				c0.1-0.5,0.1-0.9,0-1.2c0-0.3-0.1-0.6-0.3-0.8c-0.1-0.2-0.3-0.3-0.6-0.4c-0.2-0.1-0.5-0.1-0.9-0.1c-0.5,0-0.9,0.1-1.4,0.2
				c-0.4,0.1-0.8,0.3-1.2,0.4L781.4,2872z M783.7,2878.4c0.3,0,0.6,0,0.8-0.1c0.3-0.1,0.5-0.2,0.7-0.4c0.2-0.1,0.4-0.3,0.5-0.5
				c0.1-0.2,0.2-0.3,0.3-0.5v-1.1c-0.6-0.1-1.1-0.1-1.5-0.1c-0.5,0-0.9,0.1-1.2,0.2c-0.3,0.1-0.6,0.3-0.8,0.5
				c-0.2,0.2-0.3,0.5-0.3,0.8c0,0.4,0.1,0.7,0.4,0.9C782.8,2878.3,783.2,2878.4,783.7,2878.4z"/>
			<path d="M799.4,2873.1l1.6,4.4h0.1l1.1-6.2h1.2l-1.6,8h-1.4l-1.5-4.4h0l-1.6,4.4h-1.4l-1.7-8h1.2l1.3,6.2h0.1l1.5-4.5H799.4z"/>
			<path d="M816.8,2878.3c-0.2,0.2-0.4,0.3-0.7,0.5c-0.3,0.1-0.5,0.3-0.9,0.4c-0.3,0.1-0.6,0.2-1,0.2c-0.3,0.1-0.7,0.1-1,0.1
				c-0.6,0-1.2-0.1-1.7-0.3c-0.5-0.2-0.9-0.5-1.2-0.8c-0.3-0.4-0.6-0.8-0.7-1.3c-0.2-0.5-0.3-1.1-0.3-1.7c0-0.7,0.1-1.3,0.3-1.8
				c0.2-0.5,0.5-1,0.8-1.3c0.4-0.4,0.8-0.6,1.3-0.8c0.5-0.2,1.1-0.3,1.7-0.3c0.4,0,0.9,0.1,1.3,0.2c0.4,0.1,0.8,0.3,1.2,0.7
				c0.3,0.3,0.6,0.8,0.8,1.3c0.2,0.6,0.2,1.3,0.2,2.2h-6.2c0,1,0.3,1.7,0.8,2.1c0.5,0.5,1.2,0.7,2.1,0.7c0.3,0,0.6,0,0.9-0.1
				c0.3-0.1,0.5-0.2,0.8-0.2c0.3-0.1,0.5-0.2,0.7-0.3c0.2-0.1,0.3-0.2,0.5-0.3L816.8,2878.3z M813.4,2872.2c-0.3,0-0.7,0-1,0.1
				s-0.6,0.2-0.8,0.4c-0.2,0.2-0.4,0.4-0.6,0.7c-0.2,0.3-0.3,0.6-0.3,1h4.9c-0.1-0.7-0.3-1.2-0.7-1.6
				C814.6,2872.4,814.1,2872.2,813.4,2872.2z"/>
			<path d="M829.7,2877.2c0-0.3-0.1-0.6-0.4-0.8c-0.3-0.2-0.6-0.3-1-0.4c-0.4-0.1-0.8-0.2-1.3-0.3s-0.9-0.2-1.3-0.4
				c-0.4-0.2-0.7-0.4-1-0.6c-0.3-0.3-0.4-0.7-0.4-1.1c0-0.4,0.1-0.7,0.3-1s0.4-0.5,0.7-0.7c0.3-0.2,0.6-0.3,1-0.4
				c0.4-0.1,0.8-0.1,1.2-0.1c0.7,0,1.4,0.1,1.9,0.3c0.5,0.2,1,0.4,1.3,0.6l-0.5,1c-0.3-0.2-0.7-0.4-1.1-0.6
				c-0.4-0.2-0.9-0.3-1.5-0.3c-0.2,0-0.5,0-0.7,0.1c-0.2,0-0.4,0.1-0.6,0.2c-0.2,0.1-0.3,0.2-0.4,0.4c-0.1,0.2-0.2,0.3-0.2,0.6
				c0,0.3,0.1,0.5,0.4,0.6c0.3,0.1,0.6,0.3,1,0.4c0.4,0.1,0.8,0.2,1.3,0.3c0.5,0.1,0.9,0.2,1.3,0.4c0.4,0.2,0.7,0.4,1,0.7
				c0.3,0.3,0.4,0.7,0.4,1.2c0,0.7-0.3,1.3-0.9,1.8c-0.6,0.5-1.4,0.7-2.6,0.7c-0.4,0-0.7,0-1-0.1c-0.3-0.1-0.7-0.1-1-0.3
				c-0.3-0.1-0.6-0.2-0.8-0.4c-0.2-0.1-0.4-0.3-0.6-0.4l0.6-1c0.1,0.1,0.3,0.3,0.5,0.4s0.4,0.3,0.7,0.4c0.3,0.1,0.5,0.2,0.8,0.3
				c0.3,0.1,0.6,0.1,0.9,0.1c0.3,0,0.6,0,0.8-0.1c0.2,0,0.5-0.1,0.7-0.2c0.2-0.1,0.3-0.2,0.5-0.4
				C829.6,2877.6,829.7,2877.4,829.7,2877.2z"/>
			<path d="M837.9,2875.3c0-1.3,0.3-2.3,1-3.1c0.7-0.7,1.6-1.1,2.9-1.1c0.7,0,1.2,0.1,1.7,0.3c0.5,0.2,0.9,0.5,1.2,0.9
				c0.3,0.4,0.6,0.8,0.7,1.3c0.2,0.5,0.2,1.1,0.2,1.6c0,0.6-0.1,1.2-0.3,1.7c-0.2,0.5-0.4,1-0.7,1.3s-0.7,0.6-1.2,0.8
				c-0.5,0.2-1,0.3-1.6,0.3c-0.7,0-1.2-0.1-1.7-0.3c-0.5-0.2-0.9-0.5-1.2-0.9c-0.3-0.4-0.6-0.8-0.7-1.3
				C838,2876.5,837.9,2875.9,837.9,2875.3z M839.3,2875.3c0,0.4,0,0.7,0.1,1.1c0.1,0.4,0.2,0.7,0.4,1c0.2,0.3,0.5,0.5,0.8,0.7
				c0.3,0.2,0.7,0.3,1.2,0.3c0.8,0,1.5-0.3,1.9-0.8c0.4-0.5,0.6-1.3,0.6-2.3c0-0.4,0-0.8-0.1-1.1c-0.1-0.4-0.2-0.7-0.4-1
				c-0.2-0.3-0.5-0.5-0.8-0.7c-0.3-0.2-0.7-0.3-1.2-0.3c-0.8,0-1.5,0.3-1.9,0.8C839.5,2873.5,839.3,2874.3,839.3,2875.3z"/>
			<path d="M852.8,2879.3v-1.1h1.9v-5.8h-1.9v-1.1h1.9v-0.4c0-1,0.3-1.7,0.8-2.2c0.5-0.4,1.3-0.7,2.2-0.7c0.4,0,0.7,0,0.9,0.1
				c0.3,0,0.6,0.1,0.9,0.3l-0.3,1c-0.3-0.1-0.5-0.2-0.8-0.2c-0.3,0-0.5-0.1-0.7-0.1c-0.7,0-1.2,0.2-1.4,0.5
				c-0.3,0.3-0.4,0.9-0.4,1.7h3.3v1.1h-3.3v5.8h3.3v1.1H852.8z"/>
			<path d="M866.2,2871.4h1.9v-1.6l1.3-0.4v1.9h4.3v1.1h-4.3v3.8c0,0.8,0.2,1.3,0.6,1.7c0.4,0.4,0.9,0.6,1.6,0.6
				c0.5,0,0.9-0.1,1.2-0.3c0.4-0.2,0.7-0.4,1-0.6l0.4,0.9c-0.4,0.3-0.8,0.5-1.3,0.7c-0.5,0.2-1,0.3-1.6,0.3c-0.4,0-0.8-0.1-1.2-0.2
				c-0.4-0.1-0.7-0.3-1-0.6c-0.3-0.3-0.5-0.6-0.7-1s-0.3-0.9-0.3-1.4v-4h-1.9V2871.4z"/>
			<path d="M887.6,2883h-5.5v-1.1h4.2v-12.6h-4.2v-1.1h5.5V2883z"/>
		</g>
	</g>
	<g id="Group_1203_5_" transform="translate(-384 -1392)">
		<g>
			<path d="M768.1,2889.2h5.4v1.1h-4.2v12.6h4.2v1.1h-5.4V2889.2z"/>
			<path d="M781.8,2893c0.5-0.3,1-0.5,1.5-0.6c0.6-0.1,1.1-0.2,1.7-0.2c0.5,0,1,0.1,1.3,0.3c0.3,0.2,0.6,0.4,0.8,0.7
				c0.2,0.3,0.3,0.6,0.4,0.9c0.1,0.3,0.1,0.7,0.1,1c0,0.4,0,0.8,0,1.3c0,0.5,0,0.9,0,1.4c0,0.5,0,1,0.1,1.5h1.1v1h-2.1l-0.1-1.2
				h-0.1c-0.1,0.1-0.2,0.2-0.3,0.4c-0.1,0.1-0.3,0.3-0.5,0.4c-0.2,0.1-0.5,0.3-0.8,0.4c-0.3,0.1-0.7,0.2-1.1,0.2
				c-0.8,0-1.4-0.2-1.9-0.6c-0.5-0.4-0.7-1-0.7-1.7c0-0.5,0.1-1,0.4-1.4c0.2-0.4,0.6-0.6,1-0.8c0.4-0.2,1-0.3,1.6-0.3
				c0.6,0,1.3,0,2.1,0.1c0.1-0.5,0.1-0.9,0-1.2c0-0.3-0.1-0.6-0.3-0.8c-0.1-0.2-0.3-0.3-0.6-0.4c-0.2-0.1-0.5-0.1-0.9-0.1
				c-0.5,0-0.9,0.1-1.4,0.2c-0.4,0.1-0.8,0.3-1.2,0.4L781.8,2893z M784.1,2899.4c0.3,0,0.6,0,0.8-0.1c0.3-0.1,0.5-0.2,0.7-0.4
				c0.2-0.1,0.4-0.3,0.5-0.5c0.1-0.2,0.2-0.3,0.3-0.5v-1.1c-0.6-0.1-1.1-0.1-1.5-0.1s-0.9,0.1-1.2,0.2c-0.3,0.1-0.6,0.3-0.8,0.5
				c-0.2,0.2-0.3,0.5-0.3,0.8c0,0.4,0.1,0.7,0.4,0.9C783.1,2899.3,783.5,2899.4,784.1,2899.4z"/>
			<path d="M799.8,2894.1l1.6,4.4h0.1l1.1-6.2h1.2l-1.6,8h-1.4l-1.5-4.4h0l-1.6,4.4h-1.4l-1.7-8h1.2l1.3,6.2h0.1l1.5-4.5H799.8z"/>
			<path d="M817.1,2899.3c-0.2,0.2-0.4,0.3-0.7,0.5c-0.3,0.1-0.5,0.3-0.9,0.4c-0.3,0.1-0.6,0.2-1,0.2c-0.3,0.1-0.7,0.1-1,0.1
				c-0.6,0-1.2-0.1-1.7-0.3c-0.5-0.2-0.9-0.5-1.2-0.8c-0.3-0.4-0.6-0.8-0.7-1.3c-0.2-0.5-0.3-1.1-0.3-1.7c0-0.7,0.1-1.3,0.3-1.8
				c0.2-0.5,0.5-1,0.8-1.3c0.4-0.4,0.8-0.6,1.3-0.8c0.5-0.2,1.1-0.3,1.7-0.3c0.4,0,0.9,0.1,1.3,0.2c0.4,0.1,0.8,0.3,1.2,0.7
				c0.3,0.3,0.6,0.8,0.8,1.3c0.2,0.6,0.2,1.3,0.2,2.2H811c0,1,0.3,1.7,0.8,2.1c0.5,0.5,1.2,0.7,2.1,0.7c0.3,0,0.6,0,0.9-0.1
				c0.3-0.1,0.5-0.2,0.8-0.2c0.3-0.1,0.5-0.2,0.7-0.3c0.2-0.1,0.3-0.2,0.5-0.3L817.1,2899.3z M813.8,2893.2c-0.3,0-0.7,0-1,0.1
				c-0.3,0.1-0.6,0.2-0.8,0.4c-0.2,0.2-0.4,0.4-0.6,0.7c-0.2,0.3-0.3,0.6-0.3,1h4.9c-0.1-0.7-0.3-1.2-0.7-1.6
				C815,2893.4,814.4,2893.2,813.8,2893.2z"/>
			<path d="M830,2898.2c0-0.3-0.1-0.6-0.4-0.8c-0.3-0.2-0.6-0.3-1-0.4c-0.4-0.1-0.8-0.2-1.3-0.3s-0.9-0.2-1.3-0.4
				c-0.4-0.2-0.7-0.4-1-0.6c-0.3-0.3-0.4-0.7-0.4-1.1c0-0.4,0.1-0.7,0.3-1c0.2-0.3,0.4-0.5,0.7-0.7c0.3-0.2,0.6-0.3,1-0.4
				c0.4-0.1,0.8-0.1,1.2-0.1c0.7,0,1.4,0.1,1.9,0.3c0.5,0.2,1,0.4,1.3,0.6l-0.5,1c-0.3-0.2-0.7-0.4-1.1-0.5
				c-0.4-0.2-0.9-0.3-1.5-0.3c-0.2,0-0.5,0-0.7,0.1c-0.2,0-0.4,0.1-0.6,0.2c-0.2,0.1-0.3,0.2-0.4,0.4c-0.1,0.2-0.2,0.3-0.2,0.6
				c0,0.3,0.1,0.5,0.4,0.6c0.3,0.1,0.6,0.3,1,0.4c0.4,0.1,0.8,0.2,1.3,0.3s0.9,0.2,1.3,0.4c0.4,0.2,0.7,0.4,1,0.7s0.4,0.7,0.4,1.2
				c0,0.7-0.3,1.3-0.9,1.8c-0.6,0.5-1.4,0.7-2.6,0.7c-0.4,0-0.7,0-1-0.1c-0.3-0.1-0.7-0.1-1-0.3c-0.3-0.1-0.6-0.2-0.8-0.4
				c-0.2-0.1-0.4-0.3-0.6-0.4l0.6-1c0.1,0.1,0.3,0.3,0.5,0.4s0.4,0.3,0.7,0.4c0.3,0.1,0.5,0.2,0.8,0.3c0.3,0.1,0.6,0.1,0.9,0.1
				c0.3,0,0.6,0,0.8-0.1c0.2,0,0.5-0.1,0.7-0.2s0.3-0.2,0.5-0.4C830,2898.6,830,2898.4,830,2898.2z"/>
			<path d="M838.3,2896.4c0-1.3,0.3-2.3,1-3.1c0.7-0.7,1.6-1.1,2.9-1.1c0.7,0,1.2,0.1,1.7,0.3c0.5,0.2,0.9,0.5,1.2,0.9
				c0.3,0.4,0.6,0.8,0.7,1.3c0.2,0.5,0.2,1.1,0.2,1.6c0,0.6-0.1,1.2-0.3,1.7c-0.2,0.5-0.4,1-0.7,1.3c-0.3,0.4-0.7,0.6-1.2,0.8
				c-0.5,0.2-1,0.3-1.6,0.3c-0.7,0-1.2-0.1-1.7-0.3c-0.5-0.2-0.9-0.5-1.2-0.9c-0.3-0.4-0.6-0.8-0.7-1.3S838.3,2896.9,838.3,2896.4z
				 M839.6,2896.4c0,0.4,0,0.7,0.1,1.1c0.1,0.4,0.2,0.7,0.4,1c0.2,0.3,0.5,0.5,0.8,0.7c0.3,0.2,0.7,0.3,1.2,0.3
				c0.8,0,1.5-0.3,1.9-0.8c0.4-0.5,0.6-1.3,0.6-2.3c0-0.4,0-0.8-0.1-1.1c-0.1-0.4-0.2-0.7-0.4-1c-0.2-0.3-0.5-0.5-0.8-0.7
				c-0.3-0.2-0.7-0.3-1.2-0.3c-0.8,0-1.5,0.3-1.9,0.8C839.8,2894.5,839.6,2895.3,839.6,2896.4z"/>
			<path d="M853.1,2900.3v-1.1h1.9v-5.8h-1.9v-1.1h1.9v-0.4c0-1,0.3-1.7,0.8-2.2c0.5-0.4,1.3-0.7,2.2-0.7c0.4,0,0.7,0,0.9,0.1
				c0.3,0,0.6,0.1,0.9,0.3l-0.3,1c-0.3-0.1-0.5-0.2-0.8-0.2c-0.3,0-0.5-0.1-0.7-0.1c-0.7,0-1.2,0.2-1.4,0.5
				c-0.3,0.3-0.4,0.9-0.4,1.7h3.3v1.1h-3.3v5.8h3.3v1.1H853.1z"/>
			<path d="M866.6,2892.4h1.9v-1.6l1.3-0.4v1.9h4.3v1.1h-4.3v3.8c0,0.8,0.2,1.3,0.6,1.7c0.4,0.4,0.9,0.6,1.6,0.6
				c0.5,0,0.9-0.1,1.2-0.3c0.4-0.2,0.7-0.4,1-0.6l0.4,0.9c-0.4,0.3-0.8,0.5-1.3,0.7c-0.5,0.2-1,0.3-1.6,0.3c-0.4,0-0.8-0.1-1.2-0.2
				c-0.4-0.1-0.7-0.3-1-0.6c-0.3-0.3-0.5-0.6-0.7-1c-0.2-0.4-0.3-0.9-0.3-1.4v-4h-1.9V2892.4z"/>
			<path d="M887.9,2904h-5.5v-1.1h4.2v-12.6h-4.2v-1.1h5.5V2904z"/>
		</g>
	</g>
</g>
</svg>
